<mxfile host="app.diagrams.net" modified="2023-12-28T19:32:13.332Z" agent="Mozilla/5.0 (X11; Linux x86_64) AppleWebKit/537.36 (KHTML, like Gecko) Chrome/120.0.0.0 Safari/537.36" etag="hmtqj-1Spt39w-gJQ9hY" version="22.1.15" type="github" pages="2">
  <diagram name="ISMB_v1" id="_8pW4wHz2l0naxUJuMTV">
    <mxGraphModel dx="1834" dy="1193" grid="0" gridSize="10" guides="1" tooltips="1" connect="1" arrows="1" fold="1" page="0" pageScale="1" pageWidth="850" pageHeight="1100" background="none" math="0" shadow="0">
      <root>
        <mxCell id="1-xvEPNPl8uFFG34m83o-0" />
        <mxCell id="1-xvEPNPl8uFFG34m83o-1" parent="1-xvEPNPl8uFFG34m83o-0" />
        <mxCell id="1-xvEPNPl8uFFG34m83o-4" value="&lt;font style=&quot;font-size: 20px;&quot;&gt;&lt;span&gt;1&lt;/span&gt;&lt;/font&gt;" style="ellipse;whiteSpace=wrap;html=1;aspect=fixed;fillColor=#B3B3B3;strokeColor=#CCCCCC;fontStyle=0" parent="1-xvEPNPl8uFFG34m83o-1" vertex="1">
          <mxGeometry x="148" y="348" width="41" height="41" as="geometry" />
        </mxCell>
        <mxCell id="1-xvEPNPl8uFFG34m83o-5" value="" style="endArrow=none;html=1;rounded=0;fillColor=#e1d5e7;strokeColor=#000000;fontStyle=0;exitX=0.5;exitY=0;exitDx=0;exitDy=0;entryX=0;entryY=1;entryDx=0;entryDy=0;" parent="1-xvEPNPl8uFFG34m83o-1" source="xdtNXbZ7dC_vvfU1BAyV-2" target="1-xvEPNPl8uFFG34m83o-20" edge="1">
          <mxGeometry width="50" height="50" relative="1" as="geometry">
            <mxPoint x="31" y="93" as="sourcePoint" />
            <mxPoint x="128.0726962961444" y="27.004040889089268" as="targetPoint" />
          </mxGeometry>
        </mxCell>
        <mxCell id="1-xvEPNPl8uFFG34m83o-6" value="" style="endArrow=none;html=1;rounded=0;exitX=0.5;exitY=0;exitDx=0;exitDy=0;entryX=0;entryY=1;entryDx=0;entryDy=0;fillColor=#e1d5e7;strokeColor=#000000;fontStyle=0;" parent="1-xvEPNPl8uFFG34m83o-1" source="xdtNXbZ7dC_vvfU1BAyV-4" target="xdtNXbZ7dC_vvfU1BAyV-3" edge="1">
          <mxGeometry width="50" height="50" relative="1" as="geometry">
            <mxPoint x="244.5" y="240" as="sourcePoint" />
            <mxPoint x="299.0043109856865" y="158.99568901431383" as="targetPoint" />
          </mxGeometry>
        </mxCell>
        <mxCell id="1-xvEPNPl8uFFG34m83o-7" value="" style="endArrow=none;html=1;rounded=0;entryX=1;entryY=1;entryDx=0;entryDy=0;exitX=0.5;exitY=0;exitDx=0;exitDy=0;fillColor=#e1d5e7;strokeColor=#000000;fontStyle=0" parent="1-xvEPNPl8uFFG34m83o-1" source="1-xvEPNPl8uFFG34m83o-13" target="xdtNXbZ7dC_vvfU1BAyV-4" edge="1">
          <mxGeometry width="50" height="50" relative="1" as="geometry">
            <mxPoint x="295.00431098567583" y="352.00431098567583" as="sourcePoint" />
            <mxPoint x="258.99568901432417" y="272.99568901432417" as="targetPoint" />
          </mxGeometry>
        </mxCell>
        <mxCell id="1-xvEPNPl8uFFG34m83o-8" value="" style="endArrow=none;html=1;rounded=0;exitX=0.5;exitY=0;exitDx=0;exitDy=0;fillColor=#e1d5e7;strokeColor=#000000;entryX=0;entryY=1;entryDx=0;entryDy=0;" parent="1-xvEPNPl8uFFG34m83o-1" source="1-xvEPNPl8uFFG34m83o-4" target="xdtNXbZ7dC_vvfU1BAyV-4" edge="1">
          <mxGeometry width="50" height="50" relative="1" as="geometry">
            <mxPoint x="141" y="344" as="sourcePoint" />
            <mxPoint x="233" y="270" as="targetPoint" />
          </mxGeometry>
        </mxCell>
        <mxCell id="1-xvEPNPl8uFFG34m83o-11" value="" style="endArrow=none;html=1;rounded=0;entryX=0.842;entryY=0.789;entryDx=0;entryDy=0;exitX=0.5;exitY=0;exitDx=0;exitDy=0;fillColor=#e1d5e7;strokeColor=#000000;fontStyle=0;entryPerimeter=0;" parent="1-xvEPNPl8uFFG34m83o-1" source="1-xvEPNPl8uFFG34m83o-16" target="xdtNXbZ7dC_vvfU1BAyV-2" edge="1">
          <mxGeometry width="50" height="50" relative="1" as="geometry">
            <mxPoint x="629.004310985676" y="247.00431098567606" as="sourcePoint" />
            <mxPoint x="1.3840000000000146" y="168.17200000000003" as="targetPoint" />
          </mxGeometry>
        </mxCell>
        <mxCell id="1-xvEPNPl8uFFG34m83o-12" value="" style="endArrow=none;html=1;rounded=0;entryX=1;entryY=1;entryDx=0;entryDy=0;exitX=0.5;exitY=0;exitDx=0;exitDy=0;fillColor=#e1d5e7;strokeColor=#000000;fontStyle=0;" parent="1-xvEPNPl8uFFG34m83o-1" source="1-xvEPNPl8uFFG34m83o-14" target="xdtNXbZ7dC_vvfU1BAyV-3" edge="1">
          <mxGeometry width="50" height="50" relative="1" as="geometry">
            <mxPoint x="376.5" y="238" as="sourcePoint" />
            <mxPoint x="326.57899999999995" y="159.50600000000009" as="targetPoint" />
          </mxGeometry>
        </mxCell>
        <mxCell id="1-xvEPNPl8uFFG34m83o-13" value="&lt;span style=&quot;font-size: 20px;&quot;&gt;2&lt;/span&gt;" style="ellipse;whiteSpace=wrap;html=1;aspect=fixed;fillColor=#B3B3B3;strokeColor=#CCCCCC;fontStyle=0" parent="1-xvEPNPl8uFFG34m83o-1" vertex="1">
          <mxGeometry x="280" y="348" width="41" height="41" as="geometry" />
        </mxCell>
        <mxCell id="1-xvEPNPl8uFFG34m83o-14" value="&lt;font style=&quot;font-size: 20px;&quot;&gt;&lt;span&gt;3&lt;/span&gt;&lt;/font&gt;" style="ellipse;whiteSpace=wrap;html=1;aspect=fixed;fillColor=#B3B3B3;strokeColor=#CCCCCC;fontStyle=0" parent="1-xvEPNPl8uFFG34m83o-1" vertex="1">
          <mxGeometry x="379" y="240" width="41" height="41" as="geometry" />
        </mxCell>
        <mxCell id="1-xvEPNPl8uFFG34m83o-15" value="&lt;span style=&quot;font-size: 20px;&quot;&gt;&lt;span&gt;4&lt;/span&gt;&lt;/span&gt;" style="ellipse;whiteSpace=wrap;html=1;aspect=fixed;fillColor=#B3B3B3;strokeColor=#CCCCCC;fontStyle=0" parent="1-xvEPNPl8uFFG34m83o-1" vertex="1">
          <mxGeometry x="-108" y="240" width="41" height="41" as="geometry" />
        </mxCell>
        <mxCell id="1-xvEPNPl8uFFG34m83o-16" value="&lt;font style=&quot;font-size: 20px;&quot;&gt;&lt;span&gt;5&lt;/span&gt;&lt;/font&gt;" style="ellipse;whiteSpace=wrap;html=1;aspect=fixed;fillColor=#B3B3B3;strokeColor=#CCCCCC;fontStyle=0" parent="1-xvEPNPl8uFFG34m83o-1" vertex="1">
          <mxGeometry x="33" y="240" width="41" height="41" as="geometry" />
        </mxCell>
        <mxCell id="1-xvEPNPl8uFFG34m83o-20" value="&lt;font style=&quot;font-size: 20px;&quot;&gt;&lt;span&gt;12345&lt;/span&gt;&lt;/font&gt;" style="ellipse;whiteSpace=wrap;html=1;aspect=fixed;fillColor=#E6E6E6;strokeColor=#CCCCCC;fontStyle=0" parent="1-xvEPNPl8uFFG34m83o-1" vertex="1">
          <mxGeometry x="124" y="-107" width="57" height="57" as="geometry" />
        </mxCell>
        <mxCell id="xdtNXbZ7dC_vvfU1BAyV-2" value="&lt;font style=&quot;font-size: 20px;&quot;&gt;&lt;span&gt;45&lt;/span&gt;&lt;/font&gt;" style="ellipse;whiteSpace=wrap;html=1;aspect=fixed;fillColor=#E6E6E6;strokeColor=#CCCCCC;fontStyle=0" parent="1-xvEPNPl8uFFG34m83o-1" vertex="1">
          <mxGeometry x="-45" y="78" width="57" height="57" as="geometry" />
        </mxCell>
        <mxCell id="xdtNXbZ7dC_vvfU1BAyV-3" value="&lt;font style=&quot;font-size: 20px;&quot;&gt;&lt;span&gt;123&lt;/span&gt;&lt;/font&gt;" style="ellipse;whiteSpace=wrap;html=1;aspect=fixed;fillColor=#E6E6E6;strokeColor=#CCCCCC;fontStyle=0" parent="1-xvEPNPl8uFFG34m83o-1" vertex="1">
          <mxGeometry x="293" y="78" width="57" height="57" as="geometry" />
        </mxCell>
        <mxCell id="xdtNXbZ7dC_vvfU1BAyV-4" value="&lt;font style=&quot;font-size: 20px;&quot;&gt;&lt;span&gt;12&lt;/span&gt;&lt;/font&gt;" style="ellipse;whiteSpace=wrap;html=1;aspect=fixed;fillColor=#E6E6E6;strokeColor=#CCCCCC;fontStyle=0" parent="1-xvEPNPl8uFFG34m83o-1" vertex="1">
          <mxGeometry x="206" y="232" width="57" height="57" as="geometry" />
        </mxCell>
        <mxCell id="xdtNXbZ7dC_vvfU1BAyV-5" value="" style="endArrow=none;html=1;rounded=0;exitX=0.5;exitY=0;exitDx=0;exitDy=0;fillColor=#e1d5e7;strokeColor=#000000;fontStyle=0;entryX=1;entryY=1;entryDx=0;entryDy=0;" parent="1-xvEPNPl8uFFG34m83o-1" source="xdtNXbZ7dC_vvfU1BAyV-3" target="1-xvEPNPl8uFFG34m83o-20" edge="1">
          <mxGeometry width="50" height="50" relative="1" as="geometry">
            <mxPoint x="-6" y="134" as="sourcePoint" />
            <mxPoint x="138.0726962961444" y="37.00404088908927" as="targetPoint" />
          </mxGeometry>
        </mxCell>
        <mxCell id="xdtNXbZ7dC_vvfU1BAyV-13" value="" style="endArrow=none;html=1;rounded=0;fillColor=#e1d5e7;strokeColor=#000000;fontStyle=0;exitX=0.5;exitY=0;exitDx=0;exitDy=0;entryX=0;entryY=1;entryDx=0;entryDy=0;" parent="1-xvEPNPl8uFFG34m83o-1" source="1-xvEPNPl8uFFG34m83o-15" target="xdtNXbZ7dC_vvfU1BAyV-2" edge="1">
          <mxGeometry width="50" height="50" relative="1" as="geometry">
            <mxPoint x="-177" y="176" as="sourcePoint" />
            <mxPoint x="-32.927303703855614" y="125.00404088908927" as="targetPoint" />
          </mxGeometry>
        </mxCell>
      </root>
    </mxGraphModel>
  </diagram>
  <diagram name="AAAI_v1" id="enYgNVz1HByHyQiMkmE2">
    <mxGraphModel dx="1434" dy="793" grid="0" gridSize="10" guides="1" tooltips="1" connect="1" arrows="1" fold="1" page="0" pageScale="1" pageWidth="850" pageHeight="1100" background="none" math="0" shadow="0">
      <root>
        <mxCell id="0" />
        <mxCell id="1" parent="0" />
        <mxCell id="-AiD43YnRGqLnBZz7RkX-2" value="&lt;b style=&quot;border-color: var(--border-color); color: rgb(0, 0, 0); font-family: Helvetica; font-size: 20px; font-style: normal; font-variant-ligatures: normal; font-variant-caps: normal; letter-spacing: normal; orphans: 2; text-align: center; text-indent: 0px; text-transform: none; widows: 2; word-spacing: 0px; -webkit-text-stroke-width: 0px; background-color: rgb(255, 255, 255); text-decoration-thickness: initial; text-decoration-style: initial; text-decoration-color: initial;&quot;&gt;abc&lt;/b&gt;" style="ellipse;whiteSpace=wrap;html=1;aspect=fixed;fillColor=#dae8fc;strokeColor=#6c8ebf;" parent="1" vertex="1">
          <mxGeometry x="307" y="128" width="41" height="41" as="geometry" />
        </mxCell>
        <mxCell id="-AiD43YnRGqLnBZz7RkX-5" value="&lt;b style=&quot;border-color: var(--border-color); color: rgb(0, 0, 0); font-family: Helvetica; font-size: 20px; font-style: normal; font-variant-ligatures: normal; font-variant-caps: normal; letter-spacing: normal; orphans: 2; text-align: center; text-indent: 0px; text-transform: none; widows: 2; word-spacing: 0px; -webkit-text-stroke-width: 0px; background-color: rgb(255, 255, 255); text-decoration-thickness: initial; text-decoration-style: initial; text-decoration-color: initial;&quot;&gt;de&lt;/b&gt;" style="ellipse;whiteSpace=wrap;html=1;aspect=fixed;fillColor=#dae8fc;strokeColor=#6c8ebf;" parent="1" vertex="1">
          <mxGeometry x="506" y="128" width="41" height="41" as="geometry" />
        </mxCell>
        <mxCell id="-AiD43YnRGqLnBZz7RkX-8" value="&lt;font style=&quot;font-size: 20px;&quot;&gt;&lt;b&gt;a&lt;/b&gt;&lt;/font&gt;" style="ellipse;whiteSpace=wrap;html=1;aspect=fixed;fillColor=#f8cecc;strokeColor=#b85450;" parent="1" vertex="1">
          <mxGeometry x="148" y="348" width="41" height="41" as="geometry" />
        </mxCell>
        <mxCell id="-AiD43YnRGqLnBZz7RkX-11" value="" style="endArrow=none;html=1;rounded=0;exitX=1;exitY=0;exitDx=0;exitDy=0;fillColor=#e1d5e7;strokeColor=#9673a6;" parent="1" source="-AiD43YnRGqLnBZz7RkX-2" edge="1">
          <mxGeometry width="50" height="50" relative="1" as="geometry">
            <mxPoint x="399" y="252" as="sourcePoint" />
            <mxPoint x="397.0726962961444" y="61.304040889089265" as="targetPoint" />
          </mxGeometry>
        </mxCell>
        <mxCell id="-AiD43YnRGqLnBZz7RkX-13" value="" style="endArrow=none;html=1;rounded=0;exitX=1;exitY=0;exitDx=0;exitDy=0;entryX=0;entryY=1;entryDx=0;entryDy=0;fillColor=#e1d5e7;strokeColor=#9673a6;" parent="1" target="-AiD43YnRGqLnBZz7RkX-2" edge="1">
          <mxGeometry width="50" height="50" relative="1" as="geometry">
            <mxPoint x="258.99568901432417" y="244.00431098567583" as="sourcePoint" />
            <mxPoint x="449" y="202" as="targetPoint" />
          </mxGeometry>
        </mxCell>
        <mxCell id="-AiD43YnRGqLnBZz7RkX-14" value="" style="endArrow=none;html=1;rounded=0;entryX=1;entryY=1;entryDx=0;entryDy=0;exitX=0;exitY=0;exitDx=0;exitDy=0;fillColor=#e1d5e7;strokeColor=#9673a6;" parent="1" edge="1">
          <mxGeometry width="50" height="50" relative="1" as="geometry">
            <mxPoint x="295.00431098567583" y="352.00431098567583" as="sourcePoint" />
            <mxPoint x="258.99568901432417" y="272.99568901432417" as="targetPoint" />
          </mxGeometry>
        </mxCell>
        <mxCell id="-AiD43YnRGqLnBZz7RkX-15" value="" style="endArrow=none;html=1;rounded=0;entryX=0;entryY=1;entryDx=0;entryDy=0;exitX=1;exitY=0;exitDx=0;exitDy=0;fillColor=#e1d5e7;strokeColor=#9673a6;" parent="1" source="-AiD43YnRGqLnBZz7RkX-8" edge="1">
          <mxGeometry width="50" height="50" relative="1" as="geometry">
            <mxPoint x="141" y="344" as="sourcePoint" />
            <mxPoint x="230.00431098567583" y="272.99568901432417" as="targetPoint" />
          </mxGeometry>
        </mxCell>
        <mxCell id="-AiD43YnRGqLnBZz7RkX-16" value="" style="endArrow=none;html=1;rounded=0;exitX=0;exitY=0;exitDx=0;exitDy=0;fillColor=#e1d5e7;strokeColor=#9673a6;" parent="1" source="-AiD43YnRGqLnBZz7RkX-5" edge="1">
          <mxGeometry width="50" height="50" relative="1" as="geometry">
            <mxPoint x="399" y="252" as="sourcePoint" />
            <mxPoint x="439.8485433514468" y="58.81058728203402" as="targetPoint" />
          </mxGeometry>
        </mxCell>
        <mxCell id="-AiD43YnRGqLnBZz7RkX-17" value="" style="endArrow=none;html=1;rounded=0;entryX=0;entryY=1;entryDx=0;entryDy=0;exitX=1;exitY=0;exitDx=0;exitDy=0;fillColor=#e1d5e7;strokeColor=#9673a6;" parent="1" target="-AiD43YnRGqLnBZz7RkX-5" edge="1">
          <mxGeometry width="50" height="50" relative="1" as="geometry">
            <mxPoint x="461.99568901432417" y="244.00431098567583" as="sourcePoint" />
            <mxPoint x="449" y="202" as="targetPoint" />
          </mxGeometry>
        </mxCell>
        <mxCell id="-AiD43YnRGqLnBZz7RkX-18" value="" style="endArrow=none;html=1;rounded=0;entryX=1;entryY=1;entryDx=0;entryDy=0;exitX=0;exitY=0;exitDx=0;exitDy=0;fillColor=#e1d5e7;strokeColor=#9673a6;" parent="1" source="-AiD43YnRGqLnBZz7RkX-24" target="-AiD43YnRGqLnBZz7RkX-5" edge="1">
          <mxGeometry width="50" height="50" relative="1" as="geometry">
            <mxPoint x="629.004310985676" y="247.00431098567606" as="sourcePoint" />
            <mxPoint x="449" y="202" as="targetPoint" />
          </mxGeometry>
        </mxCell>
        <mxCell id="-AiD43YnRGqLnBZz7RkX-20" value="" style="endArrow=none;html=1;rounded=0;entryX=1;entryY=1;entryDx=0;entryDy=0;exitX=0.5;exitY=0;exitDx=0;exitDy=0;fillColor=#e1d5e7;strokeColor=#9673a6;" parent="1" target="-AiD43YnRGqLnBZz7RkX-2" edge="1">
          <mxGeometry width="50" height="50" relative="1" as="geometry">
            <mxPoint x="376.5" y="238" as="sourcePoint" />
            <mxPoint x="449" y="197" as="targetPoint" />
          </mxGeometry>
        </mxCell>
        <mxCell id="-AiD43YnRGqLnBZz7RkX-21" value="&lt;font style=&quot;font-size: 20px;&quot;&gt;&lt;b&gt;b&lt;/b&gt;&lt;/font&gt;" style="ellipse;whiteSpace=wrap;html=1;aspect=fixed;fillColor=#f8cecc;strokeColor=#b85450;" parent="1" vertex="1">
          <mxGeometry x="280" y="348" width="41" height="41" as="geometry" />
        </mxCell>
        <mxCell id="-AiD43YnRGqLnBZz7RkX-22" value="&lt;font style=&quot;font-size: 20px;&quot;&gt;&lt;b&gt;c&lt;/b&gt;&lt;/font&gt;" style="ellipse;whiteSpace=wrap;html=1;aspect=fixed;fillColor=#f8cecc;strokeColor=#b85450;" parent="1" vertex="1">
          <mxGeometry x="361" y="240" width="41" height="41" as="geometry" />
        </mxCell>
        <mxCell id="-AiD43YnRGqLnBZz7RkX-23" value="&lt;span style=&quot;font-size: 20px;&quot;&gt;&lt;b&gt;e&lt;/b&gt;&lt;/span&gt;" style="ellipse;whiteSpace=wrap;html=1;aspect=fixed;fillColor=#f8cecc;strokeColor=#b85450;" parent="1" vertex="1">
          <mxGeometry x="431" y="240" width="41" height="41" as="geometry" />
        </mxCell>
        <mxCell id="-AiD43YnRGqLnBZz7RkX-24" value="&lt;font style=&quot;font-size: 20px;&quot;&gt;&lt;b&gt;d&lt;/b&gt;&lt;/font&gt;" style="ellipse;whiteSpace=wrap;html=1;aspect=fixed;fillColor=#f8cecc;strokeColor=#b85450;" parent="1" vertex="1">
          <mxGeometry x="594" y="240" width="41" height="41" as="geometry" />
        </mxCell>
        <mxCell id="-AiD43YnRGqLnBZz7RkX-25" value="&lt;font style=&quot;font-size: 20px;&quot;&gt;&lt;b&gt;ab&lt;/b&gt;&lt;/font&gt;" style="ellipse;whiteSpace=wrap;html=1;aspect=fixed;fillColor=#dae8fc;strokeColor=#6c8ebf;" parent="1" vertex="1">
          <mxGeometry x="224" y="240" width="41" height="41" as="geometry" />
        </mxCell>
        <mxCell id="-AiD43YnRGqLnBZz7RkX-26" value="&lt;font style=&quot;font-size: 20px;&quot;&gt;&lt;b&gt;abc&lt;/b&gt;&lt;/font&gt;" style="ellipse;whiteSpace=wrap;html=1;aspect=fixed;fillColor=#dae8fc;strokeColor=#6c8ebf;" parent="1" vertex="1">
          <mxGeometry x="307" y="128" width="41" height="41" as="geometry" />
        </mxCell>
        <mxCell id="-AiD43YnRGqLnBZz7RkX-27" value="&lt;font style=&quot;font-size: 20px;&quot;&gt;&lt;b&gt;de&lt;/b&gt;&lt;/font&gt;" style="ellipse;whiteSpace=wrap;html=1;aspect=fixed;fillColor=#dae8fc;strokeColor=#6c8ebf;" parent="1" vertex="1">
          <mxGeometry x="506" y="128" width="41" height="41" as="geometry" />
        </mxCell>
        <mxCell id="-AiD43YnRGqLnBZz7RkX-28" value="&lt;font style=&quot;font-size: 20px;&quot;&gt;&lt;b&gt;abcde&lt;/b&gt;&lt;/font&gt;" style="ellipse;whiteSpace=wrap;html=1;aspect=fixed;fillColor=#dae8fc;strokeColor=#6c8ebf;" parent="1" vertex="1">
          <mxGeometry x="389" y="7" width="60" height="60" as="geometry" />
        </mxCell>
      </root>
    </mxGraphModel>
  </diagram>
</mxfile>
